<?xml version="1.0" encoding="UTF-8"?>
<svg width="157px" height="55px" viewBox="0 0 157 55" version="1.1" xmlns="http://www.w3.org/2000/svg" xmlns:xlink="http://www.w3.org/1999/xlink">
    <title>khoros-logo-vector</title>
    <g id="Page-1" stroke="none" stroke-width="1" fill="none" fill-rule="evenodd">
        <g id="Logos" transform="translate(-388.000000, -38.000000)" fill="#000000" fill-rule="nonzero">
            <g id="khoros-logo-vector" transform="translate(388.000000, 38.000000)">
                <path d="M140.225225,26.452381 C135.511435,29.3071429 130.139293,30.747619 124.767152,30.747619 C122.92377,30.747619 121.501733,29.3071429 121.501733,27.5 C121.501733,25.6666667 122.950104,24.252381 124.767152,24.252381 C137.091476,24.252381 147.177408,14.6142857 147.835759,2.48809524 L154.498267,2.48809524 C153.997921,12.3880952 148.75745,21.2404762 140.225225,26.452381 M154.366597,52.6428571 L147.677755,52.6428571 C147.151074,43.397619 141.120582,35.5666667 132.746362,32.3190476 C132.878032,32.3190476 132.878032,32.3190476 133.009702,32.1880952 C133.141372,32.1880952 133.404712,32.0571429 133.536383,32.0571429 C133.668053,32.0571429 133.799723,31.9261905 134.063063,31.9261905 C134.194733,31.9261905 134.458073,31.7952381 134.589744,31.7952381 C134.721414,31.7952381 134.853084,31.6642857 135.116424,31.6642857 C135.248094,31.6642857 135.511435,31.5333333 135.643105,31.402381 C135.774775,31.402381 135.906445,31.2714286 136.169785,31.2714286 C136.301455,31.1404762 136.564796,31.1404762 136.696466,31.0095238 C136.828136,31.0095238 136.959806,30.8785714 137.223146,30.8785714 C137.354816,30.747619 137.618157,30.747619 137.749827,30.6166667 C137.881497,30.4857143 138.013167,30.4857143 138.144837,30.3547619 C138.276507,30.2238095 138.539848,30.2238095 138.671518,30.0928571 C138.803188,29.9619048 138.934858,29.9619048 139.066528,29.8309524 C139.198198,29.7 139.461538,29.7 139.593209,29.5690476 C139.724879,29.4380952 139.856549,29.4380952 139.988219,29.3071429 C140.119889,29.1761905 140.383229,29.1761905 140.5149,29.0452381 C140.5149,29.0452381 140.64657,29.0452381 140.64657,28.9142857 C149.02079,34.2833333 153.997921,43.0047619 154.366597,52.6428571 M157,1.30952381 L157,0 L145.334026,0 L145.334026,1.30952381 C145.334026,12.65 136.038115,21.7642857 124.767152,21.7642857 C121.501733,21.7642857 119,24.3833333 119,27.5 C119,30.6166667 121.633403,33.2357143 124.767152,33.2357143 C136.169785,33.2357143 145.334026,42.4809524 145.334026,53.6904762 L145.334026,55 L157,55 L157,53.6904762 C157,43.1357143 151.891199,33.497619 143.253638,27.3690476 C151.891199,21.502381 157,11.8642857 157,1.30952381" id="Shape"></path>
                <path d="M74.5376247,17.9574468 C73.8803264,17.8244681 73.3544878,17.8244681 72.6971895,17.8244681 C70.593835,17.8244681 68.7796917,18.4893617 67.2021759,19.5531915 L67.2021759,17.8244681 L63.0217588,17.8244681 L63.0217588,36.4680851 L67.2021759,36.4680851 L67.2021759,27.4787234 C67.2021759,24.3138298 69.6999093,21.787234 72.6971895,21.787234 C73.3544878,21.787234 74.011786,21.9202128 74.5376247,22.1861702 L74.5376247,17.9574468 Z M85.2647325,21.787234 C82.2674524,21.787234 79.7697189,24.3138298 79.7697189,27.4787234 C79.7697189,30.643617 82.2674524,33.1702128 85.2647325,33.1702128 C88.2620127,33.1702128 90.7597461,30.643617 90.7597461,27.4787234 C90.7597461,24.3138298 88.2620127,21.787234 85.2647325,21.787234 M94.8087035,27.3457447 C94.8087035,32.6382979 90.4968268,37 85.2647325,37 C80.0326383,37 75.7207616,32.6382979 75.7207616,27.3457447 C75.7207616,22.0531915 80.0326383,17.6914894 85.2647325,17.6914894 C90.4968268,17.8244681 94.8087035,22.0531915 94.8087035,27.3457447 M50.8485947,21.787234 C47.8513146,21.787234 45.3535811,24.3138298 45.3535811,27.4787234 C45.3535811,30.643617 47.8513146,33.1702128 50.8485947,33.1702128 C53.8458749,33.1702128 56.3436083,30.643617 56.3436083,27.4787234 C56.3436083,24.3138298 53.8721668,21.787234 50.8485947,21.787234 M60.4188577,27.3457447 C60.4188577,32.6382979 56.106981,37 50.8748867,37 C45.6427924,37 41.3309157,32.6382979 41.3309157,27.3457447 C41.3309157,22.0531915 45.6427924,17.6914894 50.8748867,17.6914894 C56.106981,17.6914894 60.4188577,22.0531915 60.4188577,27.3457447 M10.0435177,24.3138298 C14.3553944,21.787234 17.5104261,17.4255319 17.9048051,12.1329787 L13.8558477,12.1329787 C13.1985494,17.2925532 9.28105168,21.5212766 4.18041704,22.3191489 L4.18041704,12 L0,12 L0,36.3351064 L4.18041704,36.3351064 L4.18041704,26.1489362 C9.28105168,26.9468085 13.1985494,31.1755319 13.8558477,36.3351064 L17.9048051,36.3351064 C17.5104261,31.1755319 14.3553944,26.6808511 10.0435177,24.3138298 M103.958296,37 C106.06165,37 107.875793,36.2021277 109.19039,35.0053191 C110.242067,33.9414894 110.767906,32.4787234 110.767906,30.9095745 C110.767906,27.0797872 107.770626,26.2819149 104.747053,25.3510638 C103.169538,24.9521277 101.618314,24.287234 101.618314,22.8244681 C101.618314,21.893617 102.407072,20.8297872 103.984587,20.8297872 C105.825023,20.8297872 106.350861,22.0265957 106.350861,22.8244681 L110.268359,22.8244681 C109.87398,18.9946809 106.74524,17.5319149 103.984587,17.5319149 C100.855848,17.5319149 97.5693563,19.5265957 97.5693563,23.2234043 C97.5693563,25.4840426 99.0154125,26.9202128 101.881233,27.8510638 L102.144152,27.9840426 C105.404352,29.1808511 106.718948,29.5797872 106.718948,31.1489362 C106.718948,31.6808511 106.587489,32.212766 106.19311,32.6117021 C105.667271,33.143617 104.878513,33.4095745 104.089755,33.4095745 C103.826836,33.4095745 101.592022,33.2765957 101.223935,31.0159574 L97.1749773,31.0159574 C97.4116047,33.9680851 99.3834995,37 103.958296,37 M38.4388033,26.1489362 C38.4388033,21.5212766 34.7842248,17.8244681 30.2094288,17.8244681 C29.0262919,17.8244681 27.9746147,18.0904255 26.9492294,18.4893617 C26.6863101,18.6223404 26.4233908,18.7553191 26.1604714,18.8882979 L26.1604714,12 L21.9800544,12 L21.9800544,36.3351064 L26.1341795,36.3351064 C26.1341795,36.3351064 26.1341795,28.9148936 26.1341795,25.75 C26.1341795,23.4893617 27.9746147,21.6542553 30.1831369,21.6542553 C32.3916591,21.6542553 34.2320943,23.5159574 34.2320943,25.75 L34.2320943,36.3351064 L38.4125113,36.3351064 L38.4125113,26.1489362 L38.4388033,26.1489362 Z M114.422484,19.7925532 C114.685403,19.6595745 114.816863,19.5265957 114.816863,19.393617 C114.816863,19.2606383 114.685403,19.1276596 114.685403,18.9946809 C114.553944,18.8617021 114.422484,18.8617021 114.028105,18.8617021 C113.765186,18.8617021 113.502267,18.8617021 113.370807,18.8617021 L113.370807,20.7234043 L113.765186,20.7234043 L113.765186,19.9255319 L113.896646,19.9255319 C114.159565,19.9255319 114.291024,20.0585106 114.291024,20.1914894 C114.291024,20.4574468 114.422484,20.5904255 114.422484,20.5904255 L114.816863,20.5904255 C114.816863,20.4574468 114.685403,20.4574468 114.685403,20.1914894 C114.685403,20.0585106 114.553944,19.9255319 114.422484,19.7925532 L114.422484,19.7925532 Z M113.896646,19.6595745 L113.633726,19.6595745 L113.633726,19.1276596 L113.896646,19.1276596 C114.159565,19.1276596 114.291024,19.2606383 114.291024,19.393617 C114.291024,19.6595745 114.159565,19.6595745 113.896646,19.6595745 Z M114.028105,17.8244681 C112.844968,17.8244681 112.05621,18.7553191 112.05621,19.8191489 C112.05621,21.0159574 112.976428,21.8138298 114.028105,21.8138298 C115.211242,21.8138298 116,20.8829787 116,19.8191489 C116,18.6223404 115.079782,17.8244681 114.028105,17.8244681 Z M114.028105,21.3882979 C113.107888,21.3882979 112.450589,20.7234043 112.450589,19.7925532 C112.450589,18.8617021 113.107888,18.1968085 114.028105,18.1968085 C114.948323,18.1968085 115.605621,18.8617021 115.605621,19.7925532 C115.474161,20.5904255 114.816863,21.3882979 114.028105,21.3882979 Z" id="Shape"></path>
            </g>
        </g>
    </g>
</svg>