<?xml version="1.0" encoding="UTF-8"?>
<svg width="98px" height="37px" viewBox="0 0 98 37" version="1.1" xmlns="http://www.w3.org/2000/svg" xmlns:xlink="http://www.w3.org/1999/xlink">
    <title>visit-austin</title>
    <g id="Page-1" stroke="none" stroke-width="1" fill="none" fill-rule="evenodd">
        <g id="Logos" transform="translate(-799.000000, -50.000000)" fill="#000000" fill-rule="nonzero">
            <g id="visit-austin" transform="translate(799.000000, 50.000000)">
                <path d="M78.7943667,22.5164051 C79.0655194,21.7849186 79.0687863,21.1016031 78.802534,20.486084 C78.1818231,19.0587932 76.2478187,18.3665571 75.5193002,18.1096448 L75.4000583,18.0668261 C75.1764936,17.9686597 74.9252457,17.9790397 74.7091091,18.0953719 C74.5289968,18.2132509 74.396496,18.4013262 74.3383161,18.6216854 C74.3383161,18.6216854 73.9756903,19.6493348 73.4448191,21.0980349 C73.2814742,21.5583362 72.863311,22.6591342 72.3585751,24.007924 C71.2559966,26.9463589 69.7450557,30.9659666 69.3072912,32.2505283 C68.6539113,34.1666662 69.2435866,34.9927108 69.2566542,35.0034155 C69.7466891,36.0952929 72.4435145,36.7215168 74.0132596,36.9980544 C74.0437044,37.0006485 74.074288,37.0006485 74.1047328,36.9980544 C74.244725,36.9983745 74.3798149,36.9417712 74.4836931,36.8392683 C74.60701,36.7190016 74.6721905,36.5429976 74.6601057,36.3629099 L74.6601057,36.3629099 C74.5653656,34.9052892 75.2383468,33.0426747 75.2465141,33.0194813 C75.2710158,32.9570373 77.745692,25.360282 78.7943667,22.5164051 Z" id="Path"></path>
                <path d="M72.9725468,13.5996032 C72.6210878,11.6103702 69.0239056,10.3855735 68.3245023,10.1630376 C68.156637,10.1104636 67.9859249,10.0667973 67.8131296,10.0322341 C67.5137201,9.93984697 67.1872529,10.0508238 67.0135605,10.3040336 C66.9098801,10.4739083 66.8290446,10.6437831 67.0135605,11.0090137 C67.0316968,11.0467125 67.0316968,11.0902272 67.0135605,11.127926 C66.9555698,11.268922 66.8518894,11.5254329 66.7288788,11.8312074 C66.5795087,12.2015343 62.6642562,22.3974151 61.5835199,25.2513104 C60.5027837,28.1052057 59.5749321,30.5598955 59.3306681,31.2139132 C58.6277503,33.0383677 59.2621336,33.8248876 59.2744347,33.8350801 C59.8016231,34.8781109 63.1668424,36.7739128 64.6007949,36.9981474 C64.633548,37.0006175 64.6664503,37.0006175 64.6992034,36.9981474 C64.8492662,36.9983562 64.9940133,36.9444459 65.1051385,36.8469589 C65.2382301,36.7326223 65.3089748,36.5651038 65.2966836,36.3933934 C65.1947605,35.005517 65.9187659,33.2320249 65.9275524,33.2116399 C65.9785139,33.0723426 71.1326592,19.3515613 72.6439327,15.5888362 C72.6351462,15.5956312 73.1184022,14.4404831 72.9725468,13.5996032 Z" id="Path"></path>
                <path d="M45.7933297,22.7964682 C46.068062,22.0794816 46.069717,21.4097112 45.7933297,20.8063931 C45.1660796,19.4073949 43.2048886,18.7288807 42.4667526,18.477061 L42.3475916,18.4350911 C42.1204839,18.3390174 41.8654753,18.3491853 41.6458659,18.463071 C41.4630939,18.5778702 41.3291559,18.7626027 41.2718328,18.9789516 C41.2718328,18.9789516 40.9027648,19.9984716 40.3731605,21.4132086 C40.2556545,21.7209883 40.0239526,22.3225575 39.7277052,23.0885091 C37.7118987,27.5915348 35.6414768,30.43325 34.6451587,31.6661173 C35.3998449,29.4382125 36.9621776,24.8460007 37.7516191,22.8034632 C38.0099087,22.1902328 38.0050825,21.4890365 37.738379,20.8798406 C37.2617351,19.8235969 35.9708245,18.907253 33.8970926,18.1867689 L33.8474422,18.1692814 C33.689251,18.1150276 33.5284978,18.0694987 33.3658333,18.0328791 C33.0834779,17.9381179 32.7759146,18.0531118 32.6128021,18.3144275 C32.5135013,18.4893022 32.4473008,18.664177 32.6128021,19.0384091 C32.628525,19.0781289 32.628525,19.1228503 32.6128021,19.1625702 C32.5565317,19.3077162 32.4605409,19.5717772 32.3446899,19.8865518 C32.2023588,20.2695276 32.0335474,20.7276995 31.8763211,21.1439015 C31.5453184,22.0060342 30.5523103,24.9176993 29.6701881,27.4866099 C29.1041735,29.1409254 28.5679491,30.7043059 28.311422,31.4282876 C27.6494166,33.3064427 28.2468765,34.1178617 28.2584616,34.1266055 C28.6109795,34.899552 30.0111209,35.8019059 31.1050848,36.3387715 C31.4360875,36.5014051 32.5366715,37.0032957 32.8511241,36.7077573 C33.1081547,36.4310421 33.3408163,36.1301823 33.5462297,35.8089009 L33.5462297,35.8089009 C33.6140853,35.6847398 35.1317327,33.5355287 36.3746478,31.7867809 C36.3034822,31.9826406 36.2323167,32.1837466 36.1743912,32.3446314 C35.5123858,34.2227866 36.1098457,35.0324569 36.1214308,35.0429493 C36.6179348,36.113183 39.3536722,36.7269935 40.9441401,36.9980494 C40.9749847,37.0006502 41.0059763,37.0006502 41.0368209,36.9980494 C41.1781495,36.9982644 41.3144717,36.9427673 41.419129,36.8424109 C41.5433851,36.7247581 41.6093363,36.5531229 41.5978705,36.377244 C41.5018797,34.9467682 42.1837453,33.1210755 42.1920203,33.0983417 C42.2267756,33.0301406 44.730811,25.5839723 45.7933297,22.7964682 Z" id="Path"></path>
                <path d="M97.7830908,21.2938357 C96.9689862,19.6280254 94.1986262,18.7891158 94.059507,18.7479423 C92.992927,18.40483 92.3832073,18.948663 92.3591621,18.9709653 C92.3351168,18.9932676 91.3990683,19.8390395 90.7721734,20.4875218 C90.4939351,20.7740205 89.2744958,22.6251115 88.7678273,23.1878157 C89.0718284,22.4295375 89.6763955,21.0090525 89.6763955,20.8683764 C89.6763955,19.5371006 86.5848592,18.5197726 85.5629347,18.1852381 L85.4976689,18.1629358 C85.4272506,18.1406335 85.3104592,18.1063223 84.9824128,18.0325531 C84.6897802,17.9392516 84.3707022,18.0513268 84.2009412,18.307043 C84.0996075,18.4785991 84.0206015,18.6501553 84.2009412,19.0207166 C84.2186078,19.0582015 84.2186078,19.1016054 84.2009412,19.1390903 C84.144263,19.281482 84.0429293,19.5405318 83.9227029,19.8493328 C83.7767137,20.2250408 83.6015266,20.674518 83.4366447,21.0845372 C83.0398975,22.0778473 81.4855417,26.2603865 80.3451083,29.3192328 C79.895118,30.5338504 79.5172636,31.5494629 79.3231838,32.0641313 C78.6361757,33.9049289 79.2562005,34.7009495 79.2682232,34.7112429 C79.8418749,35.8966959 82.9969595,36.4868491 83.9484657,36.6378185 C84.1247035,36.6659416 84.3041619,36.6122627 84.4359179,36.4920138 C84.5676739,36.3717649 84.6373477,36.1980699 84.6251686,36.0202164 C84.588666,35.0135302 84.7690668,34.0107562 85.1541649,33.0797438 C85.3551147,32.6079644 86.316926,30.6041884 86.3255136,30.5870328 C87.9100711,27.4929639 89.7254621,24.5223751 91.7563125,21.7004238 C91.4849443,22.443262 91.0280839,23.7041997 90.5162629,25.1161069 C89.5012085,27.9159034 88.2371136,31.4036401 87.8506716,32.4329771 C87.1636635,34.2754902 87.7836883,35.0697952 87.7957109,35.0800886 C88.310967,36.1300123 91.1500278,36.7321744 92.8005647,36.9980865 C92.8325742,37.0006378 92.8647364,37.0006378 92.8967459,36.9980865 C93.0434122,36.9982973 93.184883,36.9438534 93.293493,36.8454015 C93.422442,36.7299814 93.4908841,36.5616033 93.4789852,36.3890621 C93.379369,34.9857327 94.0869874,33.1946864 94.095575,33.1723841 C94.1213378,33.098615 96.7233809,25.7954693 97.8260288,23.0660108 C98.0721664,22.4974974 98.0564731,21.8497904 97.7830908,21.2938357 L97.7830908,21.2938357 Z" id="Path"></path>
                <path d="M77.154492,16.2497932 C77.4235154,16.9201711 77.9696214,17.4657894 78.674019,17.7679633 C79.045479,17.9218461 79.4484346,18.0009565 79.8558733,18 C80.2829028,17.9966432 80.7056195,17.921117 81.1029218,17.7771829 C82.4552841,17.3054438 83.3278838,16.3343067 83.7775568,14.8084537 C84.0166023,13.9940507 84.8089629,11.2988379 85.0129038,10.7917568 C85.1483072,10.4552394 85.6715327,10.6150468 85.6949357,10.6227298 C87.068446,11.0126098 88.520619,11.1093087 89.9409187,10.9054659 C90.7265928,10.8055863 90.8703544,10.6396325 90.9873697,10.5059475 L91.0174593,10.4706055 C91.2264152,10.2477971 91.8532827,8.95243546 91.9602681,8.62667428 C92.0371639,8.37774356 92.0020593,8.19642366 91.8582977,8.08886101 C91.6409836,7.92598042 91.24146,8.01356715 90.9639666,8.13956912 C88.3796006,9.13836519 85.9155931,9.23363497 85.3071137,9.15526789 C84.8624556,9.09687674 84.6083653,9.48717551 84.5381561,9.69461777 C84.0567218,10.7702443 83.5268098,11.9657264 83.0520621,13.0428895 C82.1477011,12.0763623 80.7736074,11.9134817 79.3359911,12.6141755 C77.490493,13.5054089 76.6229083,14.9728709 77.154492,16.2497932 Z" id="Path"></path>
                <path d="M39.5469027,7.23367319 C39.3575221,7.4783687 39.1415929,7.80077156 38.9663717,8.07192064 C38.9644313,7.79847242 38.9472991,7.52530255 38.9150442,7.25351336 L38.6070796,5.00165335 L37,5.00165335 L37.9026549,11 L38.2761062,11 L43,5 L41.2849558,5 L39.5469027,7.23367319 Z" id="Path"></path>
                <polygon id="Path" points="44 11 45.3122281 11 47 5 45.6877719 5"></polygon>
                <path d="M50.1936,6.29536208 C50.4314977,6.28664622 50.6524045,6.42030938 50.7584,6.63710334 L50.8544,6.78030919 L52,5.89991863 L51.912,5.76647681 C51.592,5.25874695 51.072,5 50.3808,5 C49.2608,5 48.4368,5.65093572 48.2912,6.66965012 C48.1856,7.41334418 48.4368,7.93083808 49.1584,8.45972335 L49.3936,8.63059398 C49.8576,8.96908055 49.9296,9.05695688 49.9008,9.25223759 C49.864,9.5174939 49.5808,9.69650122 49.1968,9.69650122 C48.7056,9.69650122 48.44,9.34499593 48.3024,9.0455655 L48.224,8.88283157 L47,9.64442636 L47.0464,9.77135883 C47.2736,10.3832384 47.9824,11 49.0576,11 C50.3232,11 51.208,10.3165175 51.3648,9.20992677 C51.4976,8.28071603 50.9824,7.83319772 50.3472,7.38567941 L50.1056,7.21318145 C49.736,6.95768918 49.6848,6.83889341 49.7104,6.66639544 C49.745854,6.42988671 49.9602465,6.26526175 50.1936,6.29536208 Z" id="Path"></path>
                <polygon id="Path" points="54 11 55.3128627 11 57 5 55.688588 5"></polygon>
                <polygon id="Path" points="59.4181524 5 59 6.3387052 60.560778 6.3387052 59.0940032 11 60.5688817 11 62.0356564 6.3387052 63.5818476 6.3387052 64 5"></polygon>
                <path d="M26.9451605,24.176327 L26.9000408,24.1145081 L26.882687,24.0968455 L26.882687,24.0968455 L26.882687,24.0968455 L26.882687,24.0968455 L26.882687,24.0968455 L26.8653333,24.0968455 L26.8653333,24.0968455 C22.3394765,23.2984974 16.744629,23 11.8352544,23 C6.4555933,23 1.91585349,23.3532514 0.477227999,23.8071794 L0.477227999,23.8071794 C0.335678013,23.8370834 0.211165593,23.9219913 0.130153091,24.0438578 C0.0511912239,24.1613744 0.00610766436,24.299032 0,24.4412656 C0,25.0912481 0.489375621,26.0715206 1.03081248,26.9564153 C1.57224933,27.84131 2.1674828,28.6131642 2.41911211,28.8321801 L2.41911211,28.8321801 C2.59523131,28.9781654 2.82782876,29.0329475 3.04905307,28.9805456 L3.06120069,28.9805456 C3.60263755,28.7526985 4.97878956,28.4612661 6.77490221,28.1592362 C12.1684463,27.2513802 21.4110511,26.2269512 23.9446979,26.2269512 C24.1436525,26.2157807 24.3431872,26.2312199 24.538196,26.2728739 L24.5676974,26.2728739 C25.0640145,26.2622764 25.4041479,26.239315 25.6193344,26.2163537 C25.7269276,26.2057561 25.8050194,26.1969249 25.8553453,26.1880936 L25.9108773,26.1880936 L25.9386433,26.1880936 L25.9473201,26.1880936 L25.9473201,26.1880936 C26.011529,26.1598335 26.3933114,25.9549477 26.7855061,25.1689634 C26.9102889,24.9480733 26.9833325,24.7008661 26.9989571,24.4465643 C27.0047697,24.3532317 26.9862091,24.2599959 26.9451605,24.176327 L26.9451605,24.176327 Z" id="Path"></path>
                <path d="M17.2983629,30.8377169 C16.6190823,32.4731963 17.1777906,33.4443152 17.2406241,33.6239637 C17.7772558,34.734056 21.3825376,36.74917 22.8599729,36.9864416 C22.893,36.9926241 22.9265682,36.9954631 22.9601668,36.9949156 C23.11484,36.9949973 23.2641388,36.938293 23.3796226,36.8356047 C23.4790696,36.6867389 23.5461739,36.5187372 23.5766139,36.3424186 C23.6292582,36.0814198 23.5494427,34.9865808 24.2253269,32.9680772 C24.267782,32.8392726 28.1651544,21.8264795 30.2386585,16.3065247 L30.2250729,16.3065247 L34.810217,3.93450418 C35.0679202,3.35753076 35.0629664,2.69751655 34.7966313,2.12446064 C34.3177385,1.11266663 33.7182734,0.853362644 31.6362783,0.175443713 C31.6362783,0.175443713 31.4189085,0.104262226 31.1047413,0.0313859407 C30.8229431,-0.0585544522 30.5155887,0.0494617201 30.352438,0.295774324 C30.2539423,0.465254056 30.1826178,0.634733789 30.352438,0.973693254 C27.0528324,5.09035596 4.83526203,32.7477535 4.30032855,33.3087314 C3.82483213,33.805307 3.40877276,34.1646041 1.37942195,35.628909 C1.02789424,35.8831286 0.902227325,36.2458152 1.08053848,36.4915608 C1.35734533,36.8711954 2.33890581,37 3.52255226,37 C5.85418294,37 6.64214844,36.3627562 7.81900209,34.9781068 C8.2775165,34.4391612 10.9589767,31.2088775 14.3468887,26.9803582 L17.0640111,23.5907636 C18.8250461,21.387527 20.6743876,19.0673495 22.4591973,16.8268274 L17.2983629,30.8377169 Z" id="Path"></path>
                <path d="M56.7681931,17.4758101 C56.6320458,17.3934154 54.75962,16.3290099 51.8684919,17.6809562 C50.321956,18.4226981 49.1058133,19.759619 48.4712163,21.4156238 C47.7616485,23.256894 47.7920815,25.3268516 48.562515,27.4085799 C48.046757,27.7263881 45.3990924,29.4718114 45.0387025,31.9688764 C44.8561049,33.2485171 45.3206075,34.5079796 46.4113876,35.7186777 C46.4802622,35.7859388 46.6019939,35.9036455 46.6996996,35.9809957 C47.5849566,36.635609 48.6393847,36.991102 49.7221697,37 L49.882343,37 C51.6442493,37 54.0003985,36.4568673 55.0735596,34.903138 C55.8247724,33.8185542 55.8984521,32.3724425 55.2881918,30.6001148 C55.2561572,30.5261277 52.2064576,23.2821169 53.8001819,20.8472683 C53.8466322,20.7715996 54.9310054,19.0144057 56.57118,19.7862258 C56.5791886,19.7862258 57.3912672,20.2419192 57.6058995,20.8539944 C57.6251203,20.9094847 57.6443411,20.9683381 57.6619601,21.0221469 C57.7532589,21.3046432 57.8541681,21.6258145 58.094428,21.7636995 C58.2193632,21.8360051 58.4323937,21.957075 58.6294068,21.8427312 C58.8520477,21.7115723 58.9689742,21.3214584 58.9962037,20.6152178 C59.0570695,19.1859213 58.3891469,18.2425856 56.7681931,17.4758101 Z M49.4690959,32.5641363 L49.4690959,32.5641363 C49.4690959,32.5742255 49.1679701,33.67058 48.2469736,33.974936 L48.2213459,33.974936 C48.0339432,33.8437771 47.3660205,33.2165681 47.9009993,31.2676804 C47.9009993,31.2542282 48.3815192,29.877059 49.1823857,29.6550976 C49.3377538,30.0317593 49.8310876,31.346712 49.4690959,32.5641363 Z" id="Shape"></path>
                <path d="M72.8965383,15.7232975 C74.0515764,15.6145458 74.863551,15.528102 75.2962593,15.4820917 C75.4807206,15.4625721 75.5945005,15.4500238 75.6410468,15.4472353 C76.0444482,15.4137732 76.1754674,15.3928594 76.3306218,15.3078099 C76.4857762,15.2227605 76.7512626,14.835158 76.9202084,14.5130854 C77.0167489,14.3276496 77.0253686,14.192407 76.9477914,14.0948092 C76.8988094,14.037182 76.8187314,14.0019504 76.7322993,14 L76.7322993,14 C76.6995444,14 73.7119607,14.1394254 73.1120305,14.1687047 L66.1266356,14.5186624 C62.1064133,14.8253982 59.3584569,15.2157892 59.2429531,15.2297317 C59.1332641,15.2432662 59.0442811,15.3086399 59.0171173,15.3956479 C58.8947177,15.7274803 59.4549974,16.5459072 59.8618467,16.8512488 C60.0342404,16.9767316 60.1773272,17.0213477 60.2962789,16.9906741 C60.37558,16.9697603 61.0858423,16.8777396 64.9681496,16.4943198 L72.8965383,15.7232975 Z" id="Path"></path>
            </g>
        </g>
    </g>
</svg>