<?xml version="1.0" encoding="UTF-8"?>
<svg width="160px" height="31px" viewBox="0 0 160 31" version="1.1" xmlns="http://www.w3.org/2000/svg" xmlns:xlink="http://www.w3.org/1999/xlink">
    <title>guardian-anytime-logo</title>
    <g id="Page-1" stroke="none" stroke-width="1" fill="none" fill-rule="evenodd">
        <g id="Logos" transform="translate(-180.000000, -49.000000)" fill="#000000" fill-rule="nonzero">
            <g id="guardian-anytime-logo" transform="translate(180.000000, 49.119381)">
                <path d="M20.061,4.272 L20.061,0 C20.061,0 9.527,0.003 9.433,0.007 C8.37715884,0.043765794 7.33670342,0.27143953 6.362,0.679 C4.99585767,1.25509608 3.79545108,2.16365124 2.87,3.322 C1.95035609,4.47643346 1.31862257,5.83313518 1.027,7.28 C0.751021078,8.66578615 0.788949541,10.0957917 1.138,11.465 C1.46102784,12.724779 2.04646861,13.9021351 2.856,14.92 C3.69925621,15.9809515 4.77307976,16.8359065 5.996,17.42 C7.32249789,18.0533128 8.78910251,18.3363056 10.256,18.242 C11.3033376,18.1699683 12.329582,17.9126454 13.287,17.482 L13.331,17.462 L13.383,17.437 C13.7273918,17.2759154 14.061079,17.0928718 14.382,16.889 C14.449,16.847 14.514,16.803 14.58,16.76 L14.6,16.746 L14.602,16.745 L14.622,16.73 C15.6072899,16.0552853 16.4494409,15.1924035 17.1,14.191 C17.2364701,13.9815856 17.3632698,13.7660261 17.48,13.545 C17.9398145,12.6771199 18.2616708,11.7429271 18.434,10.776 C18.7275902,9.1175095 18.5729281,7.41070244 17.986,5.832 C17.8203792,5.38357043 17.616982,4.95001317 17.378,4.536 C17.339,4.47 17.238,4.332 17.202,4.271 L20.061,4.271 L20.061,4.272 Z M9.717,14.004 L9.712,14.004 C7.1,14.004 4.984,11.825 4.984,9.138 C4.984,6.45 7.1,4.272 9.712,4.272 C9.754,4.272 9.797,4.272 9.838,4.275 L9.858,4.275 C10.2420616,4.286333 10.6231209,4.34648258 10.992,4.454 C12.982,5.028 14.44,6.907 14.44,9.138 C14.44,11.636 12.61,13.696 10.254,13.971 L10.131,13.985 L10.128,13.985 C10.0169441,13.9953548 9.90552552,14.0013594 9.794,14.003 L9.717,14.004 L9.717,14.004 Z" id="Shape"></path>
                <path d="M9.838,29.968 C4.414,29.968 0,25.426 0,19.843 C0,17.842 0.567,15.974 1.546,14.403 C2.506,16.04 3.587,16.951 4.618,17.557 C4.31724459,18.2815587 4.16294365,19.0585014 4.164,19.843 C4.164,23.063 6.71,25.683 9.838,25.683 C12.968,25.683 15.512,23.063 15.512,19.843 C15.5147159,18.7425917 15.2106731,17.6632053 14.634,16.726 C13.633,15.099 11.871,14.014 9.866,14.004 L9.788,14.004 L9.666,14.006 C7.665,13.987 5.961,12.69 5.29,10.868 C6.68675948,10.1123749 8.24994914,9.71710928 9.838,9.7179965 C11.3447071,9.71670871 12.8302818,10.0724242 14.173,10.756 C15.4721222,11.4164519 16.6094973,12.3554436 17.504,13.506 C18.9170298,15.3156026 19.6818639,17.5470731 19.6760335,19.843 C19.6760335,25.426 15.263,29.968 9.838,29.968 L9.838,29.968 Z" id="Path"></path>
                <path d="M18.146,6.299 C16.38,5.471 13.45,4.796 10.998,4.454 C10.6271976,4.3457793 10.244107,4.28529132 9.858,4.274 L17.202,4.272 C17.239,4.332 17.339,4.472 17.378,4.538 C17.618,4.949 17.818,5.385 17.986,5.833 C18.043,5.987 18.096,6.143 18.146,6.299 M14.634,16.722 C14.6306112,16.7253244 14.6269296,16.7283366 14.623,16.731 L14.602,16.746 L14.6,16.746 L14.579,16.761 C14.513,16.804 14.449,16.848 14.381,16.891 C14.0603828,17.0945042 13.7270305,17.2772133 13.383,17.438 C12.899,16.265 11.586,14.755 9.895,14.045 L9.797,14.005 C9.82965963,14.0040413 9.86234037,14.0040413 9.895,14.005 C11.89,14.022 13.635,15.102 14.633,16.722" id="Shape"></path>
                <path d="M40.277,13.98 L40.277,18.112 L45.174,18.112 C44.458,20.097 42.541,21.77 39.741,21.77 C35.783,21.77 33.318,18.758 33.318,15.25 C33.318,10.891 36.057,8.199 39.897,8.199 C41.482,8.199 43.534,8.655 44.746,10.641 L49.65,10.641 C48.12,6.126 44.055,3.904 39.834,3.904 C33.714,3.904 28.872,8.541 28.872,15.281 C28.872,21.173 33.377,26.095 39.712,26.095 C42.567,26.095 44.704,25.115 46.137,23.558 L46.137,25.655 L50.174,25.655 L50.174,13.981 L40.277,13.981 L40.277,13.98 Z M63.009,20.295 C62.034,21.518 60.877,22.175 59.811,22.175 C57.831,22.175 56.674,20.891 56.674,18.509 L56.674,10.641 L52.44,10.641 L52.44,18.916 C52.44,23.273 54.998,26.126 58.835,26.126 C60.48,26.126 61.82,25.561 63.008,24.589 L63.008,25.655 L67.241,25.655 L67.241,10.641 L63.008,10.641 L63.008,20.295 L63.009,20.295 Z M80.473,11.52 C79.346,10.767 77.976,10.328 76.331,10.328 C72.311,10.328 69.052,13.744 69.052,18.164 C69.052,22.521 72.311,25.968 76.331,25.968 C77.976,25.968 79.346,25.53 80.473,24.778 L80.473,25.655 L84.706,25.655 L84.706,10.641 L80.473,10.641 L80.473,11.519 L80.473,11.52 Z M80.473,20.546 C79.529,21.831 78.28,22.27 77.031,22.27 C74.808,22.27 73.255,20.358 73.255,18.164 C73.255,15.938 74.808,13.995 77.031,13.995 C78.281,13.995 79.529,14.434 80.473,15.751 L80.473,20.546 L80.473,20.546 Z M91.58,10.641 L87.346,10.641 L87.346,25.655 L91.579,25.655 L91.579,16.69 C92.797,15.31 94.412,14.62 96.696,14.527 L96.696,10.39 C94.533,10.39 92.889,11.08 91.579,12.334 L91.579,10.64 L91.58,10.641 Z M108.51,11.52 C107.383,10.767 106.013,10.328 104.369,10.328 C100.349,10.328 97.089,13.776 97.089,18.133 C97.089,22.552 100.349,25.968 104.369,25.968 C106.013,25.968 107.383,25.53 108.511,24.778 L108.511,25.655 L112.744,25.655 L112.744,4.208 L108.511,4.208 L108.511,11.519 L108.51,11.52 Z M108.51,20.546 C107.566,21.862 106.318,22.301 105.069,22.301 C102.846,22.301 101.292,20.358 101.292,18.133 C101.292,15.938 102.846,14.027 105.069,14.027 C106.318,14.027 107.566,14.465 108.511,15.751 L108.511,20.546 L108.51,20.546 Z M133.36,11.52 C132.232,10.767 130.862,10.328 129.217,10.328 C125.197,10.328 121.938,13.744 121.938,18.164 C121.938,22.521 125.197,25.968 129.218,25.968 C130.862,25.968 132.232,25.53 133.359,24.778 L133.359,25.655 L137.592,25.655 L137.592,10.641 L133.359,10.641 L133.359,11.519 L133.36,11.52 Z M133.36,20.546 C132.415,21.831 131.167,22.27 129.918,22.27 C127.695,22.27 126.141,20.358 126.141,18.164 C126.141,15.938 127.695,13.995 129.918,13.995 C131.167,13.995 132.415,14.434 133.359,15.751 L133.359,20.546 L133.36,20.546 Z M148.509,10.171 C146.864,10.171 145.524,10.735 144.336,11.707 L144.336,10.64 L140.103,10.64 L140.103,25.654 L144.336,25.654 L144.336,16 C145.311,14.778 146.468,14.12 147.534,14.12 C149.514,14.12 150.671,15.405 150.671,17.787 L150.671,25.654 L154.905,25.654 L154.905,17.411 C154.905,13.022 152.346,10.171 148.509,10.171 M115.719,25.655 L119.952,25.655 L119.952,10.64 L115.719,10.64 L115.719,25.655 Z M115.719,8.565 L119.952,8.565 L119.952,4.21 L115.719,4.21 L115.719,8.565 Z M159.862,9.562 C159.862,10.425 159.172,11.07 158.352,11.07 C157.533,11.07 156.844,10.425 156.844,9.562 C156.844,8.7 157.533,8.048 158.353,8.048 C159.173,8.048 159.862,8.7 159.862,9.562 L159.862,9.562 Z M159.526022,9.562 C159.529928,8.90426836 159.003652,8.36595066 158.346,8.355 C157.719,8.355 157.173,8.885 157.173,9.562 C157.173,10.233 157.719,10.757 158.346,10.757 C158.98,10.757 159.526022,10.233 159.526022,9.562 Z M158.626,9.742 L158.992,10.227 L158.682,10.227 L158.341,9.773 L158.098,9.773 L158.098,10.227 L157.856,10.227 L157.856,8.827 L158.427,8.827 C158.725,8.827 158.949,9.019 158.949,9.307 C158.949,9.524 158.819,9.677 158.626,9.741 L158.626,9.742 Z M158.421,9.543 C158.583,9.543 158.694,9.447 158.694,9.3 C158.694,9.16 158.583,9.064 158.421,9.064 L158.098,9.064 L158.098,9.544 L158.421,9.544 L158.421,9.543 Z" id="Shape"></path>
            </g>
        </g>
    </g>
</svg>