<?xml version="1.0" encoding="UTF-8"?>
<svg width="166px" height="30px" viewBox="0 0 166 30" version="1.1" xmlns="http://www.w3.org/2000/svg" xmlns:xlink="http://www.w3.org/1999/xlink">
    <title>terminus</title>
    <defs>
        <radialGradient cx="45.0409119%" cy="44.6998683%" fx="45.0409119%" fy="44.6998683%" r="74.0420287%" gradientTransform="translate(0.450409,0.446999),scale(1.000000,0.933333),translate(-0.450409,-0.446999)" id="radialGradient-1">
            <stop stop-color="#0098CE" offset="0%"></stop>
            <stop stop-color="#0072C6" offset="29%"></stop>
            <stop stop-color="#0065AC" offset="58%"></stop>
            <stop stop-color="#00538A" offset="100%"></stop>
        </radialGradient>
        <radialGradient cx="45.0409119%" cy="44.6998683%" fx="45.0409119%" fy="44.6998683%" r="74.0420287%" gradientTransform="translate(0.450409,0.446999),scale(1.000000,0.933333),translate(-0.450409,-0.446999)" id="radialGradient-2">
            <stop stop-color="#000000" offset="0%"></stop>
            <stop stop-color="#000000" offset="29%"></stop>
            <stop stop-color="#000000" offset="58%"></stop>
            <stop stop-color="#000000" offset="100%"></stop>
        </radialGradient>
    </defs>
    <g id="Page-1" stroke="none" stroke-width="1" fill="none" fill-rule="evenodd">
        <g id="Logos" transform="translate(-600.000000, -50.000000)" fill-rule="nonzero">
            <g id="terminus" transform="translate(600.000000, 50.000000)">
                <path d="M12.387542,15.3353981 L17.9181985,13.4467751 C18.115722,13.3912274 18.3132454,13.474549 18.3696807,13.6411922 C18.3978983,13.6689661 18.3978983,13.7245138 18.3978983,13.7522877 L18.3978983,29.6111659 C18.3978983,29.8055829 18.2285925,29.9722261 18.0310691,29.9722261 L12.5004125,29.9722261 C12.3028891,29.9722261 12.1335832,29.8055829 12.1335832,29.6111659 L12.1335832,29.6111659 L12.1335832,15.6409106 C12.1335832,15.5020413 12.2464538,15.363172 12.387542,15.3353981 Z M0,19.751443 L0,29.6389397 C0,29.8333568 0.169305813,30 0.366829261,30 C0.366829261,30 0.366829261,30 0.366829261,30 L5.84105054,30 C6.03857399,30 6.2078798,29.8333568 6.2078798,29.6389397 L6.2078798,29.6389397 L6.2078798,17.9461416 C6.2078798,17.7517245 6.03857399,17.5850813 5.84105054,17.5850813 C5.81283291,17.5850813 5.75639763,17.5850813 5.72818,17.6128552 L0.253958719,19.3903827 C0.112870542,19.4459304 0,19.5847998 0,19.751443 Z M18.2003749,0.476379108 L18.651857,2.69828849 L0.225741084,8.97518249 C0.0846529064,9.03073022 0,9.16959956 0,9.30846889 L0,14.0300263 C0,14.2244434 0.169305813,14.3910866 0.366829261,14.3910866 C0.395046896,14.3910866 0.451482167,14.3910866 0.479699803,14.3633127 L19.9498683,7.75313233 L20.3731328,9.5584337 C20.4295681,9.75285077 20.5988739,9.86394624 20.7963973,9.80839851 C20.8528326,9.78062464 20.9374855,9.75285077 20.9657031,9.69730304 L27.9072415,2.33722821 C28.0483297,2.19835888 28.020112,1.97616794 27.8790238,1.8372986 C27.8225886,1.78175087 27.7661533,1.753977 27.709718,1.753977 L18.5954218,0.00422336419 C18.3978983,-0.0235505031 18.2285925,0.087544966 18.1721572,0.281962037 C18.2003749,0.365283639 18.2003749,0.420831373 18.2003749,0.476379108 Z" id="Path_795" fill="url(#radialGradient-2)"></path>
                <path d="M57.9473789,22.8751037 L46.7265298,22.8751037 C46.5880008,22.8751037 46.4771776,22.9846823 46.4771776,23.1216555 C46.4771776,23.1216555 46.4771776,23.1216555 46.4771776,23.1216555 C46.4771776,23.1490502 46.4771776,23.1490502 46.4771776,23.1764448 C46.8650588,25.039281 48.6105242,26.3268294 50.5222244,26.1350669 C51.40881,26.2446455 52.3231015,25.970699 52.9880407,25.3680167 C53.0711581,25.2858328 53.1819813,25.2310435 53.2928045,25.2310435 L57.4209687,25.2310435 C57.6426151,25.2310435 57.8365557,25.422806 57.8365557,25.6419632 C57.8365557,25.6419632 57.8365557,25.6419632 57.8365557,25.6419632 C57.8365557,25.6967525 57.8365557,25.7515418 57.8088499,25.8063311 C56.5620889,28.4636121 53.8469205,29.9978625 50.4945186,29.9978625 C45.7845326,30.025107 41.9611322,26.2994348 41.9055653,21.6423445 C41.8780147,17.0400435 45.5628862,13.2869766 50.2174606,13.177398 C55.6755033,13.177398 59.0001993,17.1496221 58.3629659,22.5189733 C58.3352601,22.7107358 58.1413195,22.8751037 57.9473789,22.8751037 Z M46.5048834,19.889087 L53.8746263,19.889087 C53.6529799,17.8344883 52.3231015,16.9030702 50.2451664,16.9030702 C48.4165836,16.8208863 46.8096472,18.1084348 46.5048834,19.889087 L46.5048834,19.889087 Z M71.66175,13.8896589 C71.66175,13.6705017 71.4678094,13.4787391 71.2184572,13.4787391 C69.2513454,13.4787391 67.367351,14.2457893 65.9266494,15.5881271 L65.9266494,15.5881271 L65.9266494,14.1636054 C65.9266494,13.9444482 65.7327088,13.7526856 65.5110624,13.7526856 C65.5110624,13.7526856 65.5110624,13.7526856 65.5110624,13.7526856 L61.9093084,13.7526856 C61.6876619,13.7526856 61.4937213,13.9444482 61.4937213,14.1636054 C61.4937213,14.1636054 61.4937213,14.1636054 61.4937213,14.1636054 L61.4937213,29.3676355 C61.4937213,29.5867927 61.6876619,29.7785552 61.9093084,29.7785552 C61.9093084,29.7785552 61.9093084,29.7785552 61.9093084,29.7785552 L65.5110624,29.7785552 C65.7327088,29.7785552 65.9266494,29.5867927 65.9266494,29.3676355 C65.9266494,29.3676355 65.9266494,29.3676355 65.9266494,29.3676355 L65.9266494,20.1630335 C65.9266494,20.1082442 65.9543552,20.0534549 65.982061,19.9986656 C67.367351,18.5741438 69.2790512,17.7249097 71.2738688,17.6701204 C71.4955152,17.6427258 71.66175,17.4783579 71.66175,17.2592007 L71.66175,13.8896589 L71.66175,13.8896589 Z M101.306956,20.8752943 C101.306956,16.0264415 98.2316125,13.3691605 93.8540961,13.3417659 C91.8315727,13.2869766 89.8921666,14.0266321 88.3960534,15.3689699 C87.0384692,13.9992375 85.1544748,13.2595819 83.2150688,13.3417659 C81.663544,13.2869766 80.1120191,13.8074749 78.9483755,14.8210769 L78.9483755,14.1636054 L78.9483755,14.1636054 C78.9483755,13.9444482 78.7544349,13.7526856 78.5327885,13.7526856 C78.5327885,13.7526856 78.5327885,13.7526856 78.5327885,13.7526856 L74.9310345,13.7526856 C74.7093881,13.7526856 74.5154475,13.9444482 74.5154475,14.1636054 C74.5154475,14.1636054 74.5154475,14.1636054 74.5154475,14.1636054 L74.5154475,29.3676355 C74.5154475,29.5867927 74.7093881,29.7785552 74.9310345,29.7785552 C74.9310345,29.7785552 74.9310345,29.7785552 74.9310345,29.7785552 L78.5327885,29.7785552 C78.7544349,29.7785552 78.9483755,29.5867927 78.9483755,29.3676355 C78.9483755,29.3676355 78.9483755,29.3676355 78.9483755,29.3676355 L78.9483755,20.1630335 C78.9483755,19.4507726 79.2808451,18.7659064 79.8349611,18.3001973 C80.6384293,17.6701204 81.6358382,17.31399 82.633247,17.3413846 C84.3233008,17.3413846 85.6531792,18.1358294 85.6531792,20.6013478 L85.6531792,29.3676355 C85.6531792,29.5867927 85.8471198,29.7785552 86.0687662,29.7785552 C86.0687662,29.7785552 86.0687662,29.7785552 86.0687662,29.7785552 L89.6705202,29.7785552 C89.8921666,29.7785552 90.0861072,29.5867927 90.0861072,29.3676355 C90.0861072,29.3676355 90.0861072,29.3676355 90.0861072,29.3676355 L90.0861072,20.6013478 C90.0861072,20.3821906 90.0861072,20.1904281 90.0861072,19.9712709 C90.0584014,19.2316154 90.390871,18.5193545 91.0003986,18.0810401 L91.0003986,18.0810401 C91.7484553,17.5879365 92.6350409,17.31399 93.5216265,17.3413846 C95.0177397,17.1770167 96.3753239,18.1632241 96.6800877,19.6151405 L96.6800877,19.6151405 C96.7632051,20.0260602 96.8186167,20.4369799 96.8186167,20.8478997 L96.8186167,29.3402408 C96.8186167,29.559398 97.0125573,29.7511606 97.2342037,29.7511606 C97.2342037,29.7511606 97.2342037,29.7511606 97.2342037,29.7511606 L100.835958,29.7511606 C101.057604,29.7511606 101.251545,29.559398 101.251545,29.3402408 C101.251545,29.3402408 101.251545,29.3402408 101.251545,29.3402408 L101.306956,20.8752943 L101.306956,20.8752943 Z M104.493123,8.87643813 C104.354594,7.39712709 105.462826,6.1095786 106.95894,6 C107.069763,6 107.180586,6 107.291409,6 C108.676699,6 109.812637,7.06839131 109.92346,8.43812375 C110.006578,9.89004014 108.87064,11.150194 107.402232,11.2049833 C107.346821,11.2049833 107.291409,11.2049833 107.208292,11.2049833 C105.823002,11.2323779 104.631652,10.2187759 104.493123,8.87643813 Z M109.424756,14.1636054 L109.424756,29.3676355 C109.424756,29.5867927 109.230815,29.7785552 109.009169,29.7785552 C109.009169,29.7785552 109.009169,29.7785552 109.009169,29.7785552 L105.407415,29.7785552 C105.185768,29.7785552 104.991828,29.5867927 104.991828,29.3676355 C104.991828,29.3676355 104.991828,29.3676355 104.991828,29.3676355 L104.991828,14.1636054 C104.991828,13.9444482 105.185768,13.7526856 105.407415,13.7526856 C105.407415,13.7526856 105.407415,13.7526856 105.407415,13.7526856 L109.009169,13.7526856 C109.230815,13.7526856 109.424756,13.9444482 109.424756,14.1636054 C109.424756,14.1636054 109.424756,14.1636054 109.424756,14.1636054 L109.424756,14.1636054 Z M129.400638,21.0944515 L129.400638,29.3676355 C129.400638,29.5867927 129.206697,29.7785552 128.985051,29.7785552 C128.985051,29.7785552 128.985051,29.7785552 128.985051,29.7785552 L125.383297,29.7785552 C125.16165,29.7785552 124.96771,29.5867927 124.96771,29.3676355 C124.96771,29.3676355 124.96771,29.3676355 124.96771,29.3676355 L124.96771,21.3410034 C124.96771,18.7111171 123.637831,17.3413846 121.310544,17.3413846 C121.00578,17.3413846 120.673311,17.3961739 120.368547,17.4783579 C118.706199,17.9714615 117.542555,19.4781672 117.570261,21.2040301 L117.570261,29.3676355 C117.570261,29.5867927 117.376321,29.7785552 117.154674,29.7785552 C117.154674,29.7785552 117.154674,29.7785552 117.154674,29.7785552 L113.55292,29.7785552 C113.331274,29.7785552 113.137333,29.5867927 113.137333,29.3676355 C113.137333,29.3676355 113.137333,29.3676355 113.137333,29.3676355 L113.137333,14.1636054 C113.137333,13.9444482 113.331274,13.7526856 113.55292,13.7526856 C113.55292,13.7526856 113.55292,13.7526856 113.55292,13.7526856 L117.154674,13.7526856 C117.376321,13.7526856 117.570261,13.9444482 117.570261,14.1636054 C117.570261,14.1636054 117.570261,14.1636054 117.570261,14.1636054 L117.570261,14.1636054 L117.570261,14.9580502 L117.570261,14.9580502 C118.90014,13.8896589 120.534782,13.3143712 122.252541,13.3417659 C126.54694,13.3691605 129.400638,16.3825719 129.400638,21.0944515 Z M148.545346,13.9718428 L148.545346,29.1758729 C148.545346,29.3950301 148.351405,29.5867927 148.129759,29.5867927 C148.129759,29.5867927 148.129759,29.5867927 148.129759,29.5867927 L144.528005,29.5867927 C144.306358,29.5867927 144.112418,29.3950301 144.112418,29.1758729 C144.112418,29.1758729 144.112418,29.1758729 144.112418,29.1758729 L144.112418,28.3266388 C142.782539,29.3950301 141.147897,29.9977124 139.430138,29.9977124 C135.108033,29.9977124 132.254335,26.8747224 132.254335,22.1628428 L132.254335,13.9718428 C132.254335,13.7526856 132.448276,13.5609231 132.669922,13.5609231 C132.669922,13.5609231 132.669922,13.5609231 132.669922,13.5609231 L136.271676,13.5609231 C136.493323,13.5609231 136.687263,13.7526856 136.687263,13.9718428 C136.687263,13.9718428 136.687263,13.9718428 136.687263,13.9718428 L136.687263,21.8888963 C136.687263,24.5187826 138.017142,25.9980937 140.344429,25.9980937 C140.649193,25.9980937 140.981662,25.9433044 141.286426,25.8611204 C142.948774,25.3680167 144.112418,23.8339164 144.084712,22.1080535 L144.084712,13.9718428 C144.084712,13.7526856 144.278653,13.5609231 144.500299,13.5609231 C144.500299,13.5609231 144.500299,13.5609231 144.500299,13.5609231 L148.102053,13.5609231 C148.351405,13.5609231 148.545346,13.7526856 148.545346,13.9718428 Z M158.935021,26.436408 C160.652781,26.436408 161.816424,25.9980937 161.816424,25.0940702 C161.816424,24.4639933 161.262308,23.9161003 160.154076,23.7243378 L156.663145,23.1216555 C154.280446,22.7107358 151.870042,21.450582 151.870042,18.4097759 C151.870042,15.1224181 154.696033,13.1226087 158.796492,13.1226087 C161.622484,13.1226087 165.335061,13.8622642 165.916883,18.0536455 C165.944588,18.2728027 165.778354,18.4919599 165.556707,18.5193545 L162.204305,18.5193545 C162.010365,18.5193545 161.84413,18.3823813 161.788718,18.1906187 C161.51166,16.9852542 160.209488,16.5743345 158.768786,16.5743345 C157.051027,16.5743345 156.247558,17.1496221 156.247558,17.9166723 C156.247558,18.5193545 156.690851,19.2316154 158.242376,19.5055619 L161.151485,19.9712709 C163.672713,20.4095853 166,21.5601605 166,24.6557559 C166,28.2170602 162.869245,29.9703177 158.768786,29.9703177 C155.333267,29.9703177 151.842336,28.7375585 151.315926,24.4639933 C151.28822,24.2448361 151.454455,24.0256789 151.676101,23.9982843 C151.676101,23.9982843 151.676101,23.9982843 151.676101,23.9982843 L151.731513,23.9982843 L155.028503,24.0256789 C155.222444,24.0256789 155.388678,24.1626522 155.44409,24.3544147 C155.887383,25.9433044 157.16185,26.436408 158.935021,26.436408 Z M40.5481363,29.0662943 C40.5481363,29.093689 40.5758421,29.1210836 40.5758421,29.1210836 C40.5758421,29.2306622 40.5204305,29.3128462 40.4096073,29.3676355 C39.2182579,29.8059499 37.9714969,30.025107 36.6970301,29.9977124 C32.3472195,29.9977124 29.909109,27.3130368 29.909109,23.2038395 L29.909109,17.2592007 L27.415587,17.2592007 C27.1939406,17.2592007 27,17.0674381 27,16.8482809 C27,16.8482809 27,16.8482809 27,16.8482809 L27,16.8482809 L27,13.8896589 C27,13.6705017 27.1939406,13.4787391 27.415587,13.4787391 C27.415587,13.4787391 27.415587,13.4787391 27.415587,13.4787391 L29.909109,13.4787391 L34.3697429,8.73946489 L34.3697429,13.4787391 L39.3290811,13.4787391 C39.5507275,13.4787391 39.7446681,13.6705017 39.7446681,13.8896589 C39.7446681,13.8896589 39.7446681,13.8896589 39.7446681,13.8896589 L39.7446681,13.8896589 L39.7446681,16.8482809 C39.7446681,17.0674381 39.5507275,17.2592007 39.3290811,17.2592007 C39.3290811,17.2592007 39.3290811,17.2592007 39.3290811,17.2592007 L34.3697429,17.2592007 L34.3697429,23.2038395 C34.2312139,24.5735719 35.2286227,25.8063311 36.6416185,25.9433044 C36.8355591,25.970699 37.0294997,25.970699 37.2511461,25.9433044 C37.8883795,25.9159097 38.5256129,25.8337258 39.1351405,25.6419632 C39.1628463,25.6419632 39.2182579,25.6145686 39.2459637,25.6419632 C39.3844927,25.6693579 39.4953159,25.7515418 39.5230217,25.8885151 L40.5481363,29.0662943 Z" id="Shape" fill="#000000"></path>
            </g>
        </g>
    </g>
</svg>