<?xml version="1.0" encoding="UTF-8"?>
<svg width="98px" height="57px" viewBox="0 0 98 57" version="1.1" xmlns="http://www.w3.org/2000/svg" xmlns:xlink="http://www.w3.org/1999/xlink">
    <title>vegas-logo</title>
    <g id="Page-1" stroke="none" stroke-width="1" fill="none" fill-rule="evenodd">
        <g id="Logos" transform="translate(-34.000000, -36.000000)" fill="#000000" fill-rule="nonzero">
            <g id="Group" transform="translate(34.000000, 36.000000)">
                <path d="M49.6886895,4.06408115 C47.6643355,3.97212074 46.1000619,4.43192277 44.5357884,5.71936846 C40.5790964,9.12190347 34.9661149,18.7777461 29.8132137,29.9969156 C23.5561195,43.6070557 20.059508,48.5729176 17.5750735,49.0327197 C17.2990252,48.205076 17.1149931,47.0095907 17.1149931,45.9060658 C17.1149931,33.2155298 25.3044252,16.8465776 25.3044252,13.0762009 C25.3044252,11.512874 24.4762804,9.67366591 23.3720873,8.57014104 C22.4519264,7.55857657 21.5317655,7.00681414 20.2435402,7.00681414 C15.090639,7.00681414 3.03653103,12.7083593 1.28822528,11.6967948 C1.1041931,11.6048344 1.01217701,11.6048344 0.828144825,11.7887552 C0.368064367,12.4324781 0,13.4440426 0,14.5475674 C0,16.2028547 0.828144825,17.5822608 2.57645057,17.5822608 C6.07306205,17.5822608 17.4830574,11.6048344 21.3477333,11.6048344 C21.8078137,11.6048344 21.8998298,11.7887552 21.8998298,12.0646365 C21.8998298,13.9038446 12.5141885,29.169272 12.5141885,41.400006 C12.5141885,46.2739075 13.6183816,48.9407592 15.7347517,51.147809 C17.3910413,52.8030963 18.7712827,53.7227004 19.8754758,53.7227004 C23.096039,53.7227004 26.5006344,49.3086009 32.4816804,35.3306192 C37.5425654,23.4677268 43.155547,11.9726761 49.9647378,4.7997644 C50.4248183,4.43192277 50.2407861,4.15604155 49.6886895,4.06408115" id="Path"></path>
                <path d="M97.5370572,34.6868963 C94.5925423,34.2270943 89.8997216,34.1351339 85.8510136,34.4110151 C85.5749653,30.5486781 84.1947239,25.8586974 84.1027078,23.1918456 C84.7468205,21.7204791 85.0228687,20.6169542 85.0228687,20.1571522 C85.0228687,19.7893106 84.8388366,19.6053898 84.5627883,19.6053898 C84.1947239,19.6053898 83.7346435,19.881271 83.1825469,20.4330334 C81.8943216,21.8124395 81.3422251,22.824004 81.250209,25.1230141 C78.3977101,29.8129948 74.1649699,34.5029755 72.6927125,35.1466984 C72.8767446,33.6753319 74.256986,29.9969156 74.9931147,27.6059451 C75.1771469,27.146143 75.1771469,26.7783014 75.1771469,26.4104598 C75.1771469,25.3988953 73.9809377,24.5712517 73.5208573,23.5596872 C73.0607768,22.6400831 72.5086803,21.8124395 71.4965033,21.8124395 C68.183924,21.8124395 61.8348136,28.8933908 61.9268297,33.3994506 C61.9268297,35.2386588 63.6751355,37.3537481 65.239409,37.3537481 C66.3436021,37.3537481 67.9078757,35.7904212 70.0242458,32.9396486 C69.7481975,35.0547379 70.0242458,36.3421836 71.0364228,37.3537481 C71.7725515,38.0894313 72.5086803,38.3653126 72.9687607,38.3653126 C75.0851308,38.3653126 78.9498067,32.9396486 81.3422251,28.6175095 C81.5262573,30.5486781 81.7102894,32.9396486 81.7102894,34.7788567 C78.6737584,35.2386588 76.7414205,35.974342 76.7414205,36.8939461 C76.7414205,38.2733522 79.0418228,40.3884415 81.4342412,40.3884415 C83.5506113,40.3884415 85.1148848,39.0090354 85.5749653,36.9859065 C88.0593998,36.9859065 90.9118986,37.0778669 93.304317,37.3537481 C95.0526227,37.5376689 95.6967354,37.3537481 96.5248802,36.7100253 C96.8929446,36.434144 97.353025,35.974342 97.6290733,35.51454 C98.1811699,35.0547379 98.0891538,34.7788567 97.5370572,34.6868963 M69.9322297,29.8129948 C68.3679561,32.112005 66.251586,33.7672923 65.9755378,33.491411 C65.6074734,33.2155298 66.5276343,30.5486781 68.2759401,28.2496679 C70.0242458,25.9506578 72.1406159,24.20341 72.6006964,24.5712517 C72.8767446,24.9390933 71.4965033,27.6059451 69.9322297,29.8129948 M80.8821446,38.6411938 C80.3300481,38.6411938 79.8699676,38.2733522 79.5939193,37.9055105 C79.5019032,37.7215897 79.5019032,37.6296293 79.6859354,37.5376689 C80.1460159,37.4457085 80.9741607,37.3537481 81.8943216,37.3537481 C81.7102894,38.1813918 81.5262573,38.6411938 80.8821446,38.6411938" id="Shape"></path>
                <path d="M68.5519883,39.1009958 C65.9755378,38.8251146 62.3869102,39.4688374 58.4302182,40.4804019 C59.6264274,36.0663024 60.9146527,31.8361237 62.1108619,27.9737867 C62.2948941,27.2381034 62.3869102,26.8702618 62.3869102,26.4104598 C62.3869102,25.3069349 61.5587654,25.1230141 61.190701,23.743608 C60.8226366,22.4561623 60.178524,21.5365583 59.166347,21.5365583 C56.6819125,21.5365583 52.4491723,25.8586974 48.124416,31.2843613 C43.8916757,36.6180648 39.9349838,40.0205999 38.4627263,40.0205999 C38.094662,40.0205999 37.8186137,39.7447187 37.8186137,38.917075 C37.8186137,38.1813918 38.0026459,37.0778669 38.5547424,35.4225796 C43.3395792,35.6065004 47.7563516,30.8245593 47.7563516,27.8818263 C47.7563516,26.3184994 46.0080459,24.2953705 44.167724,24.2953705 C40.6711125,24.2953705 34.2299861,32.2039654 34.2299861,36.9859065 C34.2299861,40.5723623 36.9904689,43.6990161 39.2908712,43.6990161 C42.0513539,43.6990161 45.6399815,39.0090354 49.3206252,32.7557278 C49.136593,33.3994506 49.0445769,34.0431735 49.0445769,34.6868963 C49.0445769,37.0778669 50.7928826,39.376877 52.3571562,39.376877 C53.5533654,39.376877 55.209655,37.5376689 56.9579608,34.5949359 C55.8537677,37.3537481 55.0256228,39.7447187 54.2894941,41.7678476 C45.7319976,44.2507785 36.9904689,47.6533136 35.6102275,46.9176303 C35.4261953,46.8256699 35.3341792,46.8256699 35.150147,47.0095907 C34.8740988,47.5613532 34.5980505,48.3889968 34.6900666,49.3086009 C34.8740988,51.3317298 35.9782919,52.1593735 38.6467585,51.4236902 C41.4072413,50.688007 46.8361907,48.2970364 52.7252206,45.9980263 C51.5290114,49.6764425 51.0689309,51.6995714 51.0689309,53.0789775 C51.0689309,54.6423044 51.9890918,56.0217105 53.6453815,56.8493542 C54.1054619,57.1252354 54.4735263,57.033275 54.5655424,56.4815125 C55.3016711,52.3432943 56.221832,48.205076 57.3260251,44.2507785 C60.9146527,42.9633329 64.3192481,41.859808 67.263763,41.3080456 C68.0919079,41.1241247 68.3679561,40.9402039 68.8280366,40.0205999 C69.196101,39.2849166 69.1040849,39.1009958 68.5519883,39.1009958 M44.5357884,26.8702618 C45.0878849,27.2381034 42.2353861,32.2959258 39.4749033,33.2155298 C41.2232091,29.629074 44.0757079,26.5024202 44.5357884,26.8702618 M52.7252206,34.9627775 C52.2651401,34.5949359 53.2773171,31.5602425 55.1176389,28.7094699 C57.0499769,25.9506578 59.5344113,24.0194892 59.9024757,24.3873309 C60.3625562,24.7551725 58.9823148,27.6059451 57.234009,30.3647572 C55.4857033,33.031609 53.0932849,35.2386588 52.7252206,34.9627775" id="Shape"></path>
                <path d="M73.5208573,17.9501024 L73.5208573,18.3179441 C73.5208573,18.6857857 73.244809,18.9616669 72.8767446,18.9616669 L63.3070711,19.3295085 C62.9390067,19.3295085 62.5709424,19.0536273 62.5709424,18.6857857 L62.5709424,18.1340233 L56.0377999,18.8697065 C55.6697355,18.8697065 55.3016711,18.6857857 55.3016711,18.3179441 L53.5533654,2.13291262 C53.5533654,1.765071 53.7373976,1.48918978 54.197478,1.39722938 L63.6751355,0.201744099 C64.0431998,0.201744099 64.4112642,0.385664911 64.4112642,0.753506535 L64.5032803,1.58115019 L71.3124711,1.30526897 L71.4044872,0.569585723 C71.4044872,0.201744099 71.7725515,-0.0741371186 72.1406159,0.0178232873 L81.7102894,0.937427347 C82.0783538,0.937427347 82.3544021,1.30526897 82.3544021,1.67311059 L80.8821446,17.858142 C80.8821446,18.2259837 80.5140802,18.5018649 80.1460159,18.4099045 L73.5208573,17.9501024 L73.5208573,17.9501024 Z M62.8469906,15.7430527 C62.8469906,15.7430527 62.6629585,14.7314882 62.5709424,13.536003 C62.1108619,13.7199238 61.4667493,13.8118842 61.0066688,13.8118842 C60.2705401,13.8118842 60.0865079,13.536003 59.9024757,12.7083593 C59.5344113,11.3289532 59.0743309,5.99524967 58.9823148,3.05251668 C58.9823148,3.05251668 57.7861056,3.42035831 56.5898964,3.3283979 C57.234009,6.27113089 57.9701378,12.9842405 58.15417,16.2948151 C59.5344113,16.1108943 61.2827171,15.8350131 62.8469906,15.7430527 M71.4965033,16.7546172 C70.7603745,14.455607 69.3801332,5.99524967 69.1040849,3.51231871 C68.183924,3.69623952 66.8956987,3.69623952 65.9755378,3.69623952 C65.7915056,6.63897251 65.0553768,14.7314882 64.6873125,17.0304984 C65.8835217,16.8465776 66.8956987,16.938538 66.8956987,16.938538 C66.8036826,16.1108943 66.8036826,15.2832507 66.8956987,14.7314882 C66.9877148,14.1797258 67.3557791,13.995805 67.9078757,13.995805 C68.5519883,13.995805 68.8280366,14.1797258 69.0120688,14.7314882 C69.1040849,15.2832507 69.196101,16.1108943 69.2881171,16.8465776 C70.7603745,16.6626568 71.4965033,16.7546172 71.4965033,16.7546172 M68.5519883,11.3289532 C68.5519883,11.7887552 68.4599722,11.9726761 67.9998918,12.0646365 C67.5398113,12.0646365 67.3557791,11.8807157 67.3557791,11.4209136 C67.3557791,10.59327 67.5398113,7.9264182 67.6318274,7.00681414 C67.7238435,6.73093292 67.8158596,6.73093292 67.9078757,7.00681414 C68.0919079,7.83445779 68.4599722,10.5013096 68.5519883,11.3289532 M73.5208573,10.59327 C73.5208573,11.6048344 73.244809,13.0762009 73.4288412,14.0877654 C73.7048895,15.2832507 74.6250504,15.9269735 75.7292435,16.0189339 C77.3855331,16.2028547 78.5817423,15.0073695 78.7657745,12.9842405 C78.9498067,10.9611116 78.213678,10.0415075 76.9254527,8.84602226 C75.8212596,7.74249739 75.6372274,7.00681414 75.7292435,5.99524967 C75.8212596,4.98368521 76.1893239,4.43192277 76.5573883,4.52388318 C77.293517,4.61584358 77.2015009,5.99524967 76.8334366,8.11033901 C78.213678,8.0183786 79.0418228,8.20229942 79.0418228,8.20229942 C79.0418228,7.19073495 79.225855,6.3630913 79.3178711,5.25956643 C79.4098871,3.88016034 78.8577906,2.50075425 77.0174688,2.31683344 C75.269163,2.13291262 74.1649699,3.14447709 73.8889216,5.62740805 C73.7048895,7.65053698 74.5330343,8.84602226 75.5452113,9.94954713 C76.5573883,10.9611116 77.0174688,11.7887552 76.9254527,12.8003197 C76.8334366,13.536003 76.5573883,13.995805 76.1893239,13.995805 C75.3611791,13.9038446 75.4531952,12.5244385 75.7292435,11.053072 C75.6372274,10.8691512 74.7170665,10.8691512 73.5208573,10.59327" id="Shape"></path>
                <path d="M87.9673837,29.9049552 C88.7955285,29.9049552 89.5316572,30.6406385 89.5316572,31.5602425 C89.5316572,32.4798466 88.7955285,33.2155298 87.9673837,33.2155298 C87.1392389,33.2155298 86.4031101,32.3878862 86.4031101,31.5602425 C86.4031101,30.7325989 87.0472228,29.9049552 87.9673837,29.9049552 M87.9673837,32.7557278 C88.7035124,32.7557278 89.1635929,32.2039654 89.1635929,31.4682821 C89.1635929,30.7325989 88.7035124,30.1808364 87.9673837,30.1808364 C87.2312549,30.1808364 86.7711745,30.7325989 86.7711745,31.4682821 C86.7711745,32.2039654 87.2312549,32.7557278 87.9673837,32.7557278 M87.323271,30.6406385 L87.9673837,30.6406385 C88.4274641,30.6406385 88.6114963,30.8245593 88.6114963,31.1924009 C88.6114963,31.4682821 88.4274641,31.6522029 88.1514159,31.6522029 L88.6114963,32.4798466 L88.243432,32.4798466 L87.7833515,31.6522029 L87.5993193,31.6522029 L87.5993193,32.4798466 L87.323271,32.4798466 L87.323271,30.6406385 L87.323271,30.6406385 Z M87.9673837,31.3763217 C88.1514159,31.3763217 88.335448,31.3763217 88.335448,31.1004405 C88.335448,30.9165197 88.1514159,30.8245593 87.9673837,30.8245593 L87.6913354,30.8245593 L87.6913354,31.3763217 L87.9673837,31.3763217 Z" id="Shape"></path>
            </g>
        </g>
    </g>
</svg>